<svg width="200" height="41" viewBox="0 0 200 41" fill="none" xmlns="http://www.w3.org/2000/svg">
<path d="M2.98023e-07 15.52C2.98023e-07 12.7466 0.6 10.28 1.8 8.11998C3 5.93331 4.66667 4.23997 6.8 3.03997C8.96 1.81331 11.4 1.19997 14.12 1.19997C17.4533 1.19997 20.3067 2.07997 22.68 3.83997C25.0533 5.59997 26.64 7.99998 27.44 11.04H19.92C19.36 9.86664 18.56 8.97331 17.52 8.35997C16.5067 7.74664 15.3467 7.43997 14.04 7.43997C11.9333 7.43997 10.2267 8.17331 8.92 9.63998C7.61333 11.1066 6.96 13.0666 6.96 15.52C6.96 17.9733 7.61333 19.9333 8.92 21.4C10.2267 22.8666 11.9333 23.6 14.04 23.6C15.3467 23.6 16.5067 23.2933 17.52 22.68C18.56 22.0666 19.36 21.1733 19.92 20H27.44C26.64 23.04 25.0533 25.44 22.68 27.2C20.3067 28.9333 17.4533 29.8 14.12 29.8C11.4 29.8 8.96 29.2 6.8 28C4.66667 26.7733 3 25.08 1.8 22.92C0.6 20.76 2.98023e-07 18.2933 2.98023e-07 15.52ZM52.6688 18.08C52.6688 18.72 52.6288 19.3866 52.5488 20.08H37.0688C37.1754 21.4666 37.6154 22.5333 38.3888 23.28C39.1888 24 40.1621 24.36 41.3088 24.36C43.0154 24.36 44.2021 23.64 44.8688 22.2H52.1488C51.7754 23.6666 51.0954 24.9866 50.1088 26.16C49.1488 27.3333 47.9354 28.2533 46.4688 28.92C45.0021 29.5866 43.3621 29.92 41.5488 29.92C39.3621 29.92 37.4154 29.4533 35.7088 28.52C34.0021 27.5866 32.6688 26.2533 31.7088 24.52C30.7488 22.7866 30.2688 20.76 30.2688 18.44C30.2688 16.12 30.7354 14.0933 31.6688 12.36C32.6288 10.6266 33.9621 9.29331 35.6688 8.35997C37.3754 7.42664 39.3354 6.95997 41.5488 6.95997C43.7088 6.95997 45.6288 7.41331 47.3088 8.31998C48.9888 9.22664 50.2954 10.52 51.2288 12.2C52.1888 13.88 52.6688 15.84 52.6688 18.08ZM45.6688 16.28C45.6688 15.1066 45.2688 14.1733 44.4688 13.48C43.6688 12.7866 42.6688 12.44 41.4688 12.44C40.3221 12.44 39.3488 12.7733 38.5488 13.44C37.7754 14.1066 37.2954 15.0533 37.1088 16.28H45.6688ZM84.7572 7.03998C87.5305 7.03998 89.7305 7.87997 91.3572 9.55997C93.0105 11.24 93.8372 13.5733 93.8372 16.56V29.6H87.0372V17.48C87.0372 16.04 86.6505 14.9333 85.8772 14.16C85.1305 13.36 84.0905 12.96 82.7572 12.96C81.4239 12.96 80.3705 13.36 79.5972 14.16C78.8505 14.9333 78.4772 16.04 78.4772 17.48V29.6H71.6772V17.48C71.6772 16.04 71.2905 14.9333 70.5172 14.16C69.7705 13.36 68.7305 12.96 67.3972 12.96C66.0639 12.96 65.0105 13.36 64.2372 14.16C63.4905 14.9333 63.1172 16.04 63.1172 17.48V29.6H56.2772V7.27997H63.1172V10.08C63.8105 9.14664 64.7172 8.41331 65.8372 7.87997C66.9572 7.31997 68.2239 7.03998 69.6372 7.03998C71.3172 7.03998 72.8105 7.39998 74.1172 8.11998C75.4505 8.83997 76.4905 9.86664 77.2372 11.2C78.0105 9.97331 79.0639 8.97331 80.3972 8.19997C81.7305 7.42664 83.1839 7.03998 84.7572 7.03998ZM105.461 10.44C106.128 9.39997 107.048 8.55997 108.221 7.91997C109.394 7.27997 110.768 6.95997 112.341 6.95997C114.181 6.95997 115.848 7.42664 117.341 8.35997C118.834 9.29331 120.008 10.6266 120.861 12.36C121.741 14.0933 122.181 16.1066 122.181 18.4C122.181 20.6933 121.741 22.72 120.861 24.48C120.008 26.2133 118.834 27.56 117.341 28.52C115.848 29.4533 114.181 29.92 112.341 29.92C110.794 29.92 109.421 29.6 108.221 28.96C107.048 28.32 106.128 27.4933 105.461 26.48V40.24H98.6209V7.27997H105.461V10.44ZM115.221 18.4C115.221 16.6933 114.741 15.36 113.781 14.4C112.848 13.4133 111.688 12.92 110.301 12.92C108.941 12.92 107.781 13.4133 106.821 14.4C105.888 15.3866 105.421 16.7333 105.421 18.44C105.421 20.1466 105.888 21.4933 106.821 22.48C107.781 23.4666 108.941 23.96 110.301 23.96C111.661 23.96 112.821 23.4666 113.781 22.48C114.741 21.4666 115.221 20.1066 115.221 18.4ZM124.409 18.4C124.409 16.1066 124.836 14.0933 125.689 12.36C126.569 10.6266 127.756 9.29331 129.249 8.35997C130.743 7.42664 132.409 6.95997 134.249 6.95997C135.823 6.95997 137.196 7.27997 138.369 7.91997C139.569 8.55997 140.489 9.39997 141.129 10.44V7.27997H147.969V29.6H141.129V26.44C140.463 27.48 139.529 28.32 138.329 28.96C137.156 29.6 135.783 29.92 134.209 29.92C132.396 29.92 130.743 29.4533 129.249 28.52C127.756 27.56 126.569 26.2133 125.689 24.48C124.836 22.72 124.409 20.6933 124.409 18.4ZM141.129 18.44C141.129 16.7333 140.649 15.3866 139.689 14.4C138.756 13.4133 137.609 12.92 136.249 12.92C134.889 12.92 133.729 13.4133 132.769 14.4C131.836 15.36 131.369 16.6933 131.369 18.4C131.369 20.1066 131.836 21.4666 132.769 22.48C133.729 23.4666 134.889 23.96 136.249 23.96C137.609 23.96 138.756 23.4666 139.689 22.48C140.649 21.4933 141.129 20.1466 141.129 18.44ZM151.558 18.44C151.558 16.12 152.024 14.0933 152.958 12.36C153.918 10.6266 155.238 9.29331 156.918 8.35997C158.624 7.42664 160.571 6.95997 162.758 6.95997C165.558 6.95997 167.891 7.69331 169.758 9.15997C171.651 10.6266 172.891 12.6933 173.478 15.36H166.198C165.584 13.6533 164.398 12.8 162.638 12.8C161.384 12.8 160.384 13.2933 159.638 14.28C158.891 15.24 158.518 16.6266 158.518 18.44C158.518 20.2533 158.891 21.6533 159.638 22.64C160.384 23.6 161.384 24.08 162.638 24.08C164.398 24.08 165.584 23.2266 166.198 21.52H173.478C172.891 24.1333 171.651 26.1866 169.758 27.68C167.864 29.1733 165.531 29.92 162.758 29.92C160.571 29.92 158.624 29.4533 156.918 28.52C155.238 27.5866 153.918 26.2533 152.958 24.52C152.024 22.7866 151.558 20.76 151.558 18.44ZM190.777 29.6L183.977 20.24V29.6H177.137V-2.47955e-05H183.977V16.36L190.737 7.27997H199.177L189.897 18.48L199.257 29.6H190.777Z" fill="white"/>
</svg>
