<svg width="47" height="47" viewBox="0 0 47 47" fill="none" xmlns="http://www.w3.org/2000/svg">
<path d="M23.4975 32.7029L32.5732 28.5148L32.7298 19.858M23.4975 32.7029L14.5783 28.2343L14.7348 19.5775M23.4975 32.7029L23.6538 24.0581M14.7348 19.5775L23.8106 15.3894L32.7298 19.858M14.7348 19.5775L23.6538 24.0581M32.7298 19.858L23.6538 24.0581" stroke="#1565C0" stroke-width="2"/>
<path d="M23.4863 0.680786L45.7441 12.1613L46.0146 12.3009V35.1632L45.7324 35.2999L23.4756 46.0636L23.2578 46.1691L23.04 46.0636L0.782227 35.2999L0.5 35.1632V12.3009L0.770508 12.1613L23.0283 0.680786L23.2578 0.562622L23.4863 0.680786ZM2.10449 12.5978L14.7637 18.923L14.3818 19.0822L14.0137 19.2345L14.0801 19.6271L14.0928 19.7072L1.5 13.4142V34.0499L15.3779 27.298L15.5088 28.0695L15.5518 28.3243H15.5527L2.14551 34.8478L22.7578 44.8156V31.7814L23.0566 31.9249L23.2725 32.0284L23.4893 31.9249L23.7578 31.796V44.8156L44.3818 34.8419L31.0439 28.1769V27.0587L45.0146 34.0402V13.4142L30.748 20.5431L29.8125 19.8917L44.4102 12.5978L23.7578 1.94543V15.672L23.5586 15.5333L23.334 15.3771L23.0811 15.4816L22.7578 15.6154V1.94446L2.10449 12.5978Z" fill="#1263BF"/>
<path d="M23.4863 0.680786L23.2567 1.12492L23.2571 1.12516L23.4863 0.680786ZM45.7441 12.1613L45.9735 11.717L45.9733 11.7169L45.7441 12.1613ZM46.0146 12.3009H46.5146V11.9963L46.244 11.8566L46.0146 12.3009ZM46.0146 35.1632L46.2326 35.6132L46.5146 35.4766V35.1632H46.0146ZM45.7324 35.2999L45.9501 35.7501L45.9504 35.7499L45.7324 35.2999ZM23.4756 46.0636L23.2579 45.6135L23.2576 45.6136L23.4756 46.0636ZM23.2578 46.1691L23.0399 46.6191L23.2578 46.7246L23.4758 46.6191L23.2578 46.1691ZM23.04 46.0636L23.258 45.6136L23.2577 45.6135L23.04 46.0636ZM0.782227 35.2999L0.564243 35.7499L0.564548 35.7501L0.782227 35.2999ZM0.5 35.1632H0V35.4766L0.282016 35.6132L0.5 35.1632ZM0.5 12.3009L0.270638 11.8566L0 11.9963V12.3009H0.5ZM0.770508 12.1613L0.541304 11.7169L0.541145 11.717L0.770508 12.1613ZM23.0283 0.680786L22.7994 0.236252L22.7991 0.236415L23.0283 0.680786ZM23.2578 0.562622L23.4875 0.118487L23.2583 -1.63913e-05L23.0289 0.118088L23.2578 0.562622ZM2.10449 12.5978L1.87528 12.1534L1.00004 12.6049L1.88101 13.0451L2.10449 12.5978ZM14.7637 18.923L14.9561 19.3845L15.9646 18.9641L14.9872 18.4757L14.7637 18.923ZM14.3818 19.0822L14.573 19.5442L14.5742 19.5437L14.3818 19.0822ZM14.0137 19.2345L13.8225 18.7725L13.4542 18.9249L13.5207 19.3179L14.0137 19.2345ZM14.0801 19.6271L14.5739 19.5488L14.5731 19.5437L14.0801 19.6271ZM14.0928 19.7072L13.8693 20.1544L14.7388 20.589L14.5866 19.6289L14.0928 19.7072ZM1.5 13.4142L1.72351 12.9669L1 12.6054V13.4142H1.5ZM1.5 34.0499H1V34.8492L1.71875 34.4995L1.5 34.0499ZM15.3779 27.298L15.8709 27.2144L15.7593 26.5564L15.1592 26.8484L15.3779 27.298ZM15.5088 28.0695L16.0018 27.9863L16.0017 27.9858L15.5088 28.0695ZM15.5518 28.3243L15.0587 28.4075L15.129 28.8243H15.5518V28.3243ZM15.5527 28.3243L15.7715 28.7739L15.5527 27.8243V28.3243ZM2.14551 34.8478L1.92675 34.3982L0.999865 34.8492L1.92783 35.2979L2.14551 34.8478ZM22.7578 44.8156L22.5401 45.2657L23.2578 45.6127V44.8156H22.7578ZM22.7578 31.7814L22.9743 31.3307L22.2578 30.9865V31.7814H22.7578ZM23.0566 31.9249L22.8401 32.3756L22.8404 32.3758L23.0566 31.9249ZM23.2725 32.0284L23.0562 32.4793L23.272 32.5827L23.4879 32.4796L23.2725 32.0284ZM23.4893 31.9249L23.7047 32.3761L23.7056 32.3757L23.4893 31.9249ZM23.7578 31.796H24.2578V31.0014L23.5414 31.3453L23.7578 31.796ZM23.7578 44.8156H23.2578V45.6127L23.9755 45.2657L23.7578 44.8156ZM44.3818 34.8419L44.5995 35.292L45.5151 34.8493L44.6053 34.3947L44.3818 34.8419ZM31.0439 28.1769H30.5439V28.486L30.8204 28.6241L31.0439 28.1769ZM31.0439 27.0587L31.2675 26.6115L30.5439 26.2499V27.0587H31.0439ZM45.0146 34.0402L44.7911 34.4874L45.5146 34.849V34.0402H45.0146ZM45.0146 13.4142H45.5146V12.6054L44.7912 12.9669L45.0146 13.4142ZM30.748 20.5431L30.4624 20.9534L30.706 21.1231L30.9715 20.9904L30.748 20.5431ZM29.8125 19.8917L29.589 19.4445L28.8357 19.8209L29.5268 20.3021L29.8125 19.8917ZM44.4102 12.5978L44.6336 13.0451L45.5146 12.6049L44.6394 12.1534L44.4102 12.5978ZM23.7578 1.94543L23.987 1.50106L23.2578 1.12494V1.94543H23.7578ZM23.7578 15.672L23.4722 16.0824L24.2578 16.6292V15.672H23.7578ZM23.5586 15.5333L23.8442 15.123L23.8441 15.1229L23.5586 15.5333ZM23.334 15.3771L23.6195 14.9666L23.3954 14.8107L23.1431 14.915L23.334 15.3771ZM23.0811 15.4816L22.8901 15.0195L22.8898 15.0196L23.0811 15.4816ZM22.7578 15.6154H22.2578V16.3634L22.949 16.0773L22.7578 15.6154ZM22.7578 1.94446H23.2578V1.12395L22.5286 1.50009L22.7578 1.94446ZM23.4863 0.680786L23.2571 1.12516L45.5149 12.6056L45.7441 12.1613L45.9733 11.7169L23.7155 0.236415L23.4863 0.680786ZM45.7441 12.1613L45.5148 12.6055L45.7853 12.7452L46.0146 12.3009L46.244 11.8566L45.9735 11.717L45.7441 12.1613ZM46.0146 12.3009H45.5146V35.1632H46.0146H46.5146V12.3009H46.0146ZM46.0146 35.1632L45.7967 34.7132L45.5144 34.8499L45.7324 35.2999L45.9504 35.7499L46.2326 35.6132L46.0146 35.1632ZM45.7324 35.2999L45.5147 34.8498L23.2579 45.6135L23.4756 46.0636L23.6933 46.5137L45.9501 35.7501L45.7324 35.2999ZM23.4756 46.0636L23.2576 45.6136L23.0399 45.7191L23.2578 46.1691L23.4758 46.6191L23.6935 46.5136L23.4756 46.0636ZM23.2578 46.1691L23.4758 45.7191L23.258 45.6136L23.04 46.0636L22.8221 46.5136L23.0399 46.6191L23.2578 46.1691ZM23.04 46.0636L23.2577 45.6135L0.999905 34.8498L0.782227 35.2999L0.564548 35.7501L22.8224 46.5137L23.04 46.0636ZM0.782227 35.2999L1.00021 34.8499L0.717984 34.7132L0.5 35.1632L0.282016 35.6132L0.564243 35.7499L0.782227 35.2999ZM0.5 35.1632H1V12.3009H0.5H0V35.1632H0.5ZM0.5 12.3009L0.729362 12.7452L0.99987 12.6055L0.770508 12.1613L0.541145 11.717L0.270638 11.8566L0.5 12.3009ZM0.770508 12.1613L0.999712 12.6056L23.2575 1.12516L23.0283 0.680786L22.7991 0.236415L0.541304 11.7169L0.770508 12.1613ZM23.0283 0.680786L23.2572 1.12532L23.4867 1.00716L23.2578 0.562622L23.0289 0.118088L22.7994 0.236252L23.0283 0.680786ZM23.2578 0.562622L23.0282 1.00676L23.2567 1.12492L23.4863 0.680786L23.716 0.236651L23.4875 0.118487L23.2578 0.562622ZM2.10449 12.5978L1.88101 13.0451L14.5402 19.3702L14.7637 18.923L14.9872 18.4757L2.32797 12.1505L2.10449 12.5978ZM14.7637 18.923L14.5713 18.4615L14.1894 18.6206L14.3818 19.0822L14.5742 19.5437L14.9561 19.3845L14.7637 18.923ZM14.3818 19.0822L14.1907 18.6201L13.8225 18.7725L14.0137 19.2345L14.2048 19.6965L14.573 19.5442L14.3818 19.0822ZM14.0137 19.2345L13.5207 19.3179L13.5871 19.7105L14.0801 19.6271L14.5731 19.5437L14.5067 19.1511L14.0137 19.2345ZM14.0801 19.6271L13.5862 19.7054L13.5989 19.7854L14.0928 19.7072L14.5866 19.6289L14.5739 19.5488L14.0801 19.6271ZM14.0928 19.7072L14.3163 19.2599L1.72351 12.9669L1.5 13.4142L1.27649 13.8614L13.8693 20.1544L14.0928 19.7072ZM1.5 13.4142H1V34.0499H1.5H2V13.4142H1.5ZM1.5 34.0499L1.71875 34.4995L15.5967 27.7476L15.3779 27.298L15.1592 26.8484L1.28125 33.6003L1.5 34.0499ZM15.3779 27.298L14.885 27.3816L15.0158 28.1531L15.5088 28.0695L16.0017 27.9858L15.8709 27.2144L15.3779 27.298ZM15.5088 28.0695L15.0157 28.1526L15.0587 28.4075L15.5518 28.3243L16.0448 28.2412L16.0018 27.9863L15.5088 28.0695ZM15.5518 28.3243V28.8243H15.5527V28.3243V27.8243H15.5518V28.3243ZM15.5527 28.3243L15.334 27.8747L1.92675 34.3982L2.14551 34.8478L2.36427 35.2974L15.7715 28.7739L15.5527 28.3243ZM2.14551 34.8478L1.92783 35.2979L22.5401 45.2657L22.7578 44.8156L22.9755 44.3654L2.36318 34.3976L2.14551 34.8478ZM22.7578 44.8156H23.2578V31.7814H22.7578H22.2578V44.8156H22.7578ZM22.7578 31.7814L22.5413 32.2321L22.8401 32.3756L23.0566 31.9249L23.2731 31.4742L22.9743 31.3307L22.7578 31.7814ZM23.0566 31.9249L22.8404 32.3758L23.0562 32.4793L23.2725 32.0284L23.4887 31.5776L23.2729 31.4741L23.0566 31.9249ZM23.2725 32.0284L23.4879 32.4796L23.7047 32.3761L23.4893 31.9249L23.2738 31.4737L23.057 31.5772L23.2725 32.0284ZM23.4893 31.9249L23.7056 32.3757L23.9742 32.2468L23.7578 31.796L23.5414 31.3453L23.2729 31.4742L23.4893 31.9249ZM23.7578 31.796H23.2578V44.8156H23.7578H24.2578V31.796H23.7578ZM23.7578 44.8156L23.9755 45.2657L44.5995 35.292L44.3818 34.8419L44.1642 34.3918L23.5401 44.3654L23.7578 44.8156ZM44.3818 34.8419L44.6053 34.3947L31.2674 27.7296L31.0439 28.1769L30.8204 28.6241L44.1583 35.2892L44.3818 34.8419ZM31.0439 28.1769H31.5439V27.0587H31.0439H30.5439V28.1769H31.0439ZM31.0439 27.0587L30.8204 27.506L44.7911 34.4874L45.0146 34.0402L45.2382 33.5929L31.2675 26.6115L31.0439 27.0587ZM45.0146 34.0402H45.5146V13.4142H45.0146H44.5146V34.0402H45.0146ZM45.0146 13.4142L44.7912 12.9669L30.5245 20.0958L30.748 20.5431L30.9715 20.9904L45.2381 13.8615L45.0146 13.4142ZM30.748 20.5431L31.0337 20.1328L30.0982 19.4814L29.8125 19.8917L29.5268 20.3021L30.4624 20.9534L30.748 20.5431ZM29.8125 19.8917L30.036 20.339L44.6336 13.0451L44.4102 12.5978L44.1867 12.1505L29.589 19.4445L29.8125 19.8917ZM44.4102 12.5978L44.6394 12.1534L23.987 1.50106L23.7578 1.94543L23.5286 2.38981L44.181 13.0421L44.4102 12.5978ZM23.7578 1.94543H23.2578V15.672H23.7578H24.2578V1.94543H23.7578ZM23.7578 15.672L24.0435 15.2616L23.8442 15.123L23.5586 15.5333L23.2729 15.9437L23.4722 16.0824L23.7578 15.672ZM23.5586 15.5333L23.8441 15.1229L23.6195 14.9666L23.334 15.3771L23.0485 15.7875L23.2731 15.9438L23.5586 15.5333ZM23.334 15.3771L23.1431 14.915L22.8901 15.0195L23.0811 15.4816L23.272 15.9437L23.5249 15.8392L23.334 15.3771ZM23.0811 15.4816L22.8898 15.0196L22.5666 15.1534L22.7578 15.6154L22.949 16.0773L23.2723 15.9436L23.0811 15.4816ZM22.7578 15.6154H23.2578V1.94446H22.7578H22.2578V15.6154H22.7578ZM22.7578 1.94446L22.5286 1.50009L1.87528 12.1534L2.10449 12.5978L2.3337 13.0421L22.987 2.38882L22.7578 1.94446Z" fill="#1263BF"/>
</svg>
