<svg width="66" height="19" viewBox="0 0 66 19" fill="none" xmlns="http://www.w3.org/2000/svg">
<path d="M6.3 13.824C5.136 13.824 4.074 13.554 3.114 13.014C2.154 12.462 1.392 11.7 0.828 10.728C0.276 9.744 0 8.64 0 7.416C0 6.192 0.276 5.094 0.828 4.122C1.392 3.138 2.154 2.376 3.114 1.836C4.074 1.284 5.136 1.008 6.3 1.008C7.476 1.008 8.544 1.284 9.504 1.836C10.464 2.376 11.22 3.132 11.772 4.104C12.324 5.076 12.6 6.18 12.6 7.416C12.6 8.652 12.324 9.756 11.772 10.728C11.22 11.7 10.464 12.462 9.504 13.014C8.544 13.554 7.476 13.824 6.3 13.824ZM6.3 12.402C7.176 12.402 7.962 12.198 8.658 11.79C9.366 11.382 9.918 10.8 10.314 10.044C10.722 9.288 10.926 8.412 10.926 7.416C10.926 6.408 10.722 5.532 10.314 4.788C9.918 4.032 9.372 3.45 8.676 3.042C7.98 2.634 7.188 2.43 6.3 2.43C5.412 2.43 4.62 2.634 3.924 3.042C3.228 3.45 2.676 4.032 2.268 4.788C1.872 5.532 1.674 6.408 1.674 7.416C1.674 8.412 1.872 9.288 2.268 10.044C2.676 10.8 3.228 11.382 3.924 11.79C4.632 12.198 5.424 12.402 6.3 12.402Z" fill="#64748B"/>
<path d="M16.4004 5.652C16.7244 5.088 17.2044 4.62 17.8404 4.248C18.4884 3.864 19.2384 3.672 20.0904 3.672C20.9664 3.672 21.7584 3.882 22.4664 4.302C23.1864 4.722 23.7504 5.316 24.1584 6.084C24.5664 6.84 24.7704 7.722 24.7704 8.73C24.7704 9.726 24.5664 10.614 24.1584 11.394C23.7504 12.174 23.1864 12.78 22.4664 13.212C21.7584 13.644 20.9664 13.86 20.0904 13.86C19.2504 13.86 18.5064 13.674 17.8584 13.302C17.2224 12.918 16.7364 12.444 16.4004 11.88V15.573H65.8537V16.698H16.4004V18.378H14.7624V3.834H16.4004V5.652ZM23.0964 8.73C23.0964 7.986 22.9464 7.338 22.6464 6.786C22.3464 6.234 21.9384 5.814 21.4224 5.526C20.9184 5.238 20.3604 5.094 19.7484 5.094C19.1484 5.094 18.5904 5.244 18.0744 5.544C17.5704 5.832 17.1624 6.258 16.8504 6.822C16.5504 7.374 16.4004 8.016 16.4004 8.748C16.4004 9.492 16.5504 10.146 16.8504 10.71C17.1624 11.262 17.5704 11.688 18.0744 11.988C18.5904 12.276 19.1484 12.42 19.7484 12.42C20.3604 12.42 20.9184 12.276 21.4224 11.988C21.9384 11.688 22.3464 11.262 22.6464 10.71C22.9464 10.146 23.0964 9.486 23.0964 8.73Z" fill="#64748B"/>
<path d="M28.9245 5.184V10.998C28.9245 11.478 29.0265 11.82 29.2305 12.024C29.4345 12.216 29.7885 12.312 30.2925 12.312H31.4985V13.698H30.0225C29.1105 13.698 28.4265 13.488 27.9705 13.068C27.5145 12.648 27.2865 11.958 27.2865 10.998V5.184H26.0085V3.834H27.2865V1.35H28.9245V3.834H31.4985V5.184H28.9245Z" fill="#64748B"/>
<path d="M34.3291 2.232C34.0171 2.232 33.7531 2.124 33.5371 1.908C33.3211 1.692 33.2131 1.428 33.2131 1.116C33.2131 0.804 33.3211 0.54 33.5371 0.324C33.7531 0.108 34.0171 0 34.3291 0C34.6291 0 34.8811 0.108 35.0851 0.324C35.3011 0.54 35.4091 0.804 35.4091 1.116C35.4091 1.428 35.3011 1.692 35.0851 1.908C34.8811 2.124 34.6291 2.232 34.3291 2.232ZM35.1211 3.834V13.698H33.4831V3.834H35.1211Z" fill="#64748B"/>
<path d="M49.7748 3.654C50.5428 3.654 51.2268 3.816 51.8268 4.14C52.4268 4.452 52.9008 4.926 53.2488 5.562C53.5968 6.198 53.7708 6.972 53.7708 7.884V13.698H52.1508V8.118C52.1508 7.134 51.9048 6.384 51.4128 5.868C50.9328 5.34 50.2788 5.076 49.4508 5.076C48.5988 5.076 47.9208 5.352 47.4168 5.904C46.9128 6.444 46.6608 7.23 46.6608 8.262V13.698H45.0408V8.118C45.0408 7.134 44.7948 6.384 44.3028 5.868C43.8228 5.34 43.1688 5.076 42.3408 5.076C41.4888 5.076 40.8108 5.352 40.3068 5.904C39.8028 6.444 39.5508 7.23 39.5508 8.262V13.698H37.9128V3.834H39.5508V5.256C39.8748 4.74 40.3068 4.344 40.8468 4.068C41.3988 3.792 42.0048 3.654 42.6648 3.654C43.4928 3.654 44.2248 3.84 44.8608 4.212C45.4968 4.584 45.9708 5.13 46.2828 5.85C46.5588 5.154 47.0148 4.614 47.6508 4.23C48.2868 3.846 48.9948 3.654 49.7748 3.654Z" fill="#64748B"/>
<path d="M55.8457 8.73C55.8457 7.722 56.0497 6.84 56.4577 6.084C56.8657 5.316 57.4237 4.722 58.1317 4.302C58.8517 3.882 59.6497 3.672 60.5257 3.672C61.3897 3.672 62.1397 3.858 62.7757 4.23C63.4117 4.602 63.8857 5.07 64.1977 5.634V3.834H65.8537V13.698H64.1977V11.862C63.8737 12.438 63.3877 12.918 62.7397 13.302C62.1037 13.674 61.3597 13.86 60.5077 13.86C59.6317 13.86 58.8397 13.644 58.1317 13.212C57.4237 12.78 56.8657 12.174 56.4577 11.394C56.0497 10.614 55.8457 9.726 55.8457 8.73ZM64.1977 8.748C64.1977 8.004 64.0477 7.356 63.7477 6.804C63.4477 6.252 63.0397 5.832 62.5237 5.544C62.0197 5.244 61.4617 5.094 60.8497 5.094C60.2377 5.094 59.6797 5.238 59.1757 5.526C58.6717 5.814 58.2697 6.234 57.9697 6.786C57.6697 7.338 57.5197 7.986 57.5197 8.73C57.5197 9.486 57.6697 10.146 57.9697 10.71C58.2697 11.262 58.6717 11.688 59.1757 11.988C59.6797 12.276 60.2377 12.42 60.8497 12.42C61.4617 12.42 62.0197 12.276 62.5237 11.988C63.0397 11.688 63.4477 11.262 63.7477 10.71C64.0477 10.146 64.1977 9.492 64.1977 8.748Z" fill="#64748B"/>
</svg>
